<?xml version="1.0" encoding="utf-8"?>
<!-- Generator: Adobe Illustrator 16.0.1, SVG Export Plug-In . SVG Version: 6.00 Build 0)  -->
<!DOCTYPE svg PUBLIC "-//W3C//DTD SVG 1.1//EN" "http://www.w3.org/Graphics/SVG/1.1/DTD/svg11.dtd">
<svg version="1.1" id="Layer_1" xmlns="http://www.w3.org/2000/svg" xmlns:xlink="http://www.w3.org/1999/xlink" x="0px" y="0px"
	 width="35px" height="35px" viewBox="0 0 35 35" enable-background="new 0 0 35 35" xml:space="preserve">
<path fill="#FFFFFF" d="M23.804,17.5c0,3.475-2.818,6.305-6.303,6.305c-3.48,0-6.305-2.83-6.305-6.305s2.824-6.305,6.305-6.305
	C20.985,11.195,23.804,14.025,23.804,17.5z"/>
<path fill="#FFFFFF" d="M17.5,0c-3.358,0-6.494,0.959-9.162,2.606C7.611,2.163,6.767,1.893,5.855,1.893
	c-2.649,0-4.804,2.157-4.804,4.808c0,1.039,0.339,1.996,0.901,2.783C0.709,11.888,0,14.611,0,17.5C0,27.149,7.851,35,17.5,35
	S35,27.149,35,17.5S27.149,0,17.5,0z M5.855,4.393c1.269,0,2.301,1.035,2.301,2.308S7.124,9.008,5.855,9.008
	c-1.271,0-2.304-1.035-2.304-2.308S4.585,4.393,5.855,4.393z M17.5,32C9.505,32,3,25.495,3,17.5c0-2.232,0.514-4.345,1.419-6.236
	c0.457,0.145,0.933,0.244,1.437,0.244c2.647,0,4.801-2.157,4.801-4.808c0-0.631-0.129-1.23-0.351-1.783
	C12.427,3.699,14.883,3,17.5,3C25.495,3,32,9.505,32,17.5S25.495,32,17.5,32z"/>
</svg>
