<?xml version="1.0" encoding="UTF-8" standalone="no"?>
<svg width="17px" height="17px" viewBox="0 0 17 17" version="1.1" xmlns="http://www.w3.org/2000/svg" xmlns:xlink="http://www.w3.org/1999/xlink" xmlns:sketch="http://www.bohemiancoding.com/sketch/ns">
    <!-- Generator: Sketch 3.4.4 (17249) - http://www.bohemiancoding.com/sketch -->
    <title>search</title>
    <desc>Created with Sketch.</desc>
    <defs></defs>
    <g id="Page-1" stroke="none" stroke-width="1" fill="none" fill-rule="evenodd" sketch:type="MSPage">
        <g id="Quiz_Dashboard-(dragged)" sketch:type="MSLayerGroup" transform="translate(-1286.000000, -237.000000)" fill="#FFFFFF">
            <g id="search-icon" transform="translate(1279.000000, 230.000000)" sketch:type="MSShapeGroup">
                <g id="search" transform="translate(7.000000, 7.000000)">
                    <path d="M6.644,0.7734 C3.429,0.7734 0.825,3.3774 0.825,6.5874 C0.825,9.8014 3.429,12.4064 6.644,12.4064 C9.854,12.4064 12.458,9.8014 12.458,6.5874 C12.458,3.3774 9.854,0.7734 6.644,0.7734 M6.644,2.2244 C9.048,2.2244 11.005,4.1814 11.005,6.5874 C11.005,8.9954 9.048,10.9514 6.644,10.9514 C4.238,10.9514 2.279,8.9954 2.279,6.5874 C2.279,4.1814 4.238,2.2244 6.644,2.2244" id="Fill-18"></path>
                    <path d="M12.47,10.9585 L16.824,15.3145 L15.371,16.7685 L11.017,12.4125 L11.017,11.6865 L11.741,10.9585 L12.47,10.9585 Z" id="Fill-19"></path>
                </g>
            </g>
        </g>
    </g>
</svg>